<?xml version="1.0" encoding="UTF-8" standalone="no"?>
<!-- Created with Inkscape (http://www.inkscape.org/) -->

<svg
   xmlns:dc="http://purl.org/dc/elements/1.1/"
   xmlns:cc="http://creativecommons.org/ns#"
   xmlns:rdf="http://www.w3.org/1999/02/22-rdf-syntax-ns#"
   xmlns:svg="http://www.w3.org/2000/svg"
   xmlns="http://www.w3.org/2000/svg"
   xmlns:xlink="http://www.w3.org/1999/xlink"
   xmlns:sodipodi="http://sodipodi.sourceforge.net/DTD/sodipodi-0.dtd"
   xmlns:inkscape="http://www.inkscape.org/namespaces/inkscape"
   width="48"
   height="48"
   viewBox="0 0 48 48"
   version="1.1"
   id="svg6580"
   inkscape:version="0.92.3 (2405546, 2018-03-11)"
   sodipodi:docname="file_kqte.svg"
   inkscape:export-xdpi="96"
   inkscape:export-ydpi="96">
  <defs
     id="defs6574">
    <linearGradient
       inkscape:collect="always"
       id="linearGradient7590">
      <stop
         style="stop-color:#babdb6;stop-opacity:1"
         offset="0"
         id="stop7586" />
      <stop
         style="stop-color:#2e3436;stop-opacity:1"
         offset="1"
         id="stop7588" />
    </linearGradient>
    <linearGradient
       inkscape:collect="always"
       id="linearGradient7580">
      <stop
         style="stop-color:#8f5902;stop-opacity:1;"
         offset="0"
         id="stop7576" />
      <stop
         style="stop-color:#6a4201;stop-opacity:1"
         offset="1"
         id="stop7578" />
    </linearGradient>
    <linearGradient
       inkscape:collect="always"
       id="linearGradient7570">
      <stop
         style="stop-color:#c17d11;stop-opacity:1"
         offset="0"
         id="stop7566" />
      <stop
         style="stop-color:#916012;stop-opacity:1"
         offset="1"
         id="stop7568" />
    </linearGradient>
    <linearGradient
       inkscape:collect="always"
       xlink:href="#linearGradient3301"
       id="linearGradient6715"
       gradientUnits="userSpaceOnUse"
       gradientTransform="matrix(0.33850641,0.00499883,0.05727632,0.28052458,-93.353181,213.17551)"
       x1="345.18588"
       y1="288.52759"
       x2="349.42551"
       y2="297.38123" />
    <linearGradient
       id="linearGradient3301">
      <stop
         style="stop-color:#fcf8c9;stop-opacity:1;"
         offset="0"
         id="stop3303" />
      <stop
         style="stop-color:#a5a600;stop-opacity:1;"
         offset="1"
         id="stop3305" />
    </linearGradient>
    <linearGradient
       inkscape:collect="always"
       xlink:href="#linearGradient3301"
       id="linearGradient5417"
       gradientUnits="userSpaceOnUse"
       gradientTransform="matrix(0.25209534,-0.02443719,0.07444209,0.266897,-68.89728,227.21811)"
       x1="345.18588"
       y1="288.52759"
       x2="349.42551"
       y2="297.38123" />
    <linearGradient
       inkscape:collect="always"
       xlink:href="#linearGradient3301"
       id="linearGradient5972"
       gradientUnits="userSpaceOnUse"
       gradientTransform="matrix(0.34375931,0.00549642,0.05816512,0.30844838,-95.884516,205.1037)"
       x1="345.18588"
       y1="288.52759"
       x2="349.42551"
       y2="297.38123" />
    <radialGradient
       inkscape:collect="always"
       xlink:href="#linearGradient3269"
       id="radialGradient5946"
       gradientUnits="userSpaceOnUse"
       gradientTransform="matrix(0.08568581,0,0,0.07459061,2.2613674,289.713)"
       cx="146.74945"
       cy="114.89503"
       fx="146.74945"
       fy="114.89503"
       r="232.6609" />
    <linearGradient
       id="linearGradient3269">
      <stop
         style="stop-color:#fce94f;stop-opacity:1;"
         offset="0"
         id="stop3271" />
      <stop
         style="stop-color:#fcaf29;stop-opacity:1;"
         offset="1"
         id="stop3273" />
    </linearGradient>
    <linearGradient
       inkscape:collect="always"
       xlink:href="#linearGradient9233"
       id="linearGradient6313"
       gradientUnits="userSpaceOnUse"
       gradientTransform="matrix(1.3752246,0.08469185,0.02145719,1.3587179,28.579931,9.9499076)"
       x1="-14.769251"
       y1="6.4671016"
       x2="-14.744253"
       y2="-4.6475568" />
    <linearGradient
       id="linearGradient9233">
      <stop
         style="stop-color:#eeeeec;stop-opacity:1;"
         offset="0"
         id="stop9235" />
      <stop
         style="stop-color:#eeeeec;stop-opacity:0;"
         offset="1"
         id="stop9237" />
    </linearGradient>
    <filter
       style="color-interpolation-filters:sRGB"
       id="filter7446"
       inkscape:label="filter0"
       x="-0.20000000000000001"
       y="-0.20000000000000001"
       width="1.3999999999999999"
       height="1.3999999999999999">
      <feGaussianBlur
         stdDeviation="1"
         id="feGaussianBlur7448"
         in="SourceAlpha" />
      <feColorMatrix
         id="feColorMatrix7450"
         values="1 0 0 0 0 0 1 0 0 0 0 0 1 0 0 0 0 0 0.5 0 " />
      <feOffset
         dx="2"
         dy="2"
         id="feOffset7452"
         result="result1" />
      <feMerge
         id="feMerge7454">
        <feMergeNode
           inkscape:collect="always"
           id="feMergeNode7456"
           in="result1" />
        <feMergeNode
           inkscape:collect="always"
           id="feMergeNode7458"
           in="SourceGraphic" />
      </feMerge>
    </filter>
    <radialGradient
       inkscape:collect="always"
       xlink:href="#linearGradient7570"
       id="radialGradient7574"
       cx="10.999998"
       cy="297.87134"
       fx="10.999998"
       fy="297.87134"
       r="18.838526"
       gradientTransform="matrix(-4.0447697e-7,1.0085716,-2.0702261,-8.3024222e-7,627.66102,291.20595)"
       gradientUnits="userSpaceOnUse" />
    <linearGradient
       inkscape:collect="always"
       xlink:href="#linearGradient7580"
       id="linearGradient7582"
       x1="6"
       y1="299.29999"
       x2="40"
       y2="317.29999"
       gradientUnits="userSpaceOnUse" />
    <radialGradient
       inkscape:collect="always"
       xlink:href="#linearGradient7590"
       id="radialGradient7592"
       cx="10.613504"
       cy="301.92499"
       fx="10.613504"
       fy="301.92499"
       r="6.75"
       gradientUnits="userSpaceOnUse"
       gradientTransform="matrix(0.37770453,-0.37770498,0.74074179,0.74074096,-217.65722,83.660566)" />
  </defs>
  <sodipodi:namedview
     id="base"
     pagecolor="#ffffff"
     bordercolor="#666666"
     borderopacity="1.0"
     inkscape:pageopacity="0.0"
     inkscape:pageshadow="2"
     inkscape:zoom="29.322222"
     inkscape:cx="25.850046"
     inkscape:cy="21.707673"
     inkscape:document-units="px"
     inkscape:current-layer="layer1"
     showgrid="true"
     units="px"
     inkscape:snap-smooth-nodes="true"
     inkscape:window-width="3828"
     inkscape:window-height="2065"
     inkscape:window-x="0"
     inkscape:window-y="38"
     inkscape:window-maximized="0"
     inkscape:snap-nodes="true">
    <inkscape:grid
       type="xygrid"
       id="grid7125" />
  </sodipodi:namedview>
  <metadata
     id="metadata6577">
    <rdf:RDF>
      <cc:Work
         rdf:about="">
        <dc:format>image/svg+xml</dc:format>
        <dc:type
           rdf:resource="http://purl.org/dc/dcmitype/StillImage" />
        <dc:title></dc:title>
      </cc:Work>
    </rdf:RDF>
  </metadata>
  <g
     inkscape:label="Layer 1"
     inkscape:groupmode="layer"
     id="layer1"
     transform="translate(0,-284.29999)">
    <g
       id="g7683"
       style="filter:url(#filter7446)"
       inkscape:export-xdpi="96"
       inkscape:export-ydpi="96">
      <rect
         ry="3.7500026"
         y="298.29999"
         x="5"
         height="20.000002"
         width="36"
         id="rect7564"
         style="opacity:1;fill:url(#radialGradient7574);fill-opacity:1;stroke:url(#linearGradient7582);stroke-width:1.5;stroke-linecap:square;stroke-linejoin:round;stroke-miterlimit:4;stroke-dasharray:none;stroke-opacity:1" />
      <g
         id="g6520"
         transform="matrix(0.5445432,0,0,0.5445432,20.01457,151.22057)">
        <path
           style="display:inline;fill:url(#linearGradient6715);fill-opacity:1;fill-rule:evenodd;stroke:none;stroke-width:1.09337389;stroke-linecap:butt;stroke-linejoin:round;stroke-miterlimit:2.20000005;stroke-dasharray:none;stroke-opacity:1"
           d="m 38.024884,295.25863 c -1.142816,-0.36355 0.0088,0.72406 0.179672,1.56081 0.139697,0.68416 1.91078,1.81054 2.512499,2.56231 0.812203,1.01477 0.698648,-0.26643 1.245696,-0.6466 3.370696,-2.54865 1.127976,-3.51134 -0.796887,-3.2869 -0.854761,-0.049 -2.223595,0.0481 -3.14098,-0.18962 z"
           id="path6713"
           sodipodi:nodetypes="cssccc"
           inkscape:connector-curvature="0" />
        <path
           style="display:inline;fill:url(#linearGradient5417);fill-opacity:1;fill-rule:evenodd;stroke:none;stroke-width:0.21867478;stroke-linecap:butt;stroke-linejoin:miter;stroke-miterlimit:2.20000005;stroke-dasharray:none;stroke-opacity:1"
           d="m 38.052318,295.39896 c -0.89049,-0.25345 0.08886,0.70092 0.310897,1.49701 0.181556,0.65093 1.625585,1.58927 2.158127,2.26576 0.718845,0.91313 0.355607,-0.37007 0.718883,-0.78582 2.214928,-2.76142 0.514926,-2.90778 -0.393415,-2.8509 -0.648677,-0.0359 -2.085816,0.0249 -2.794492,-0.12605 z"
           id="path2497"
           sodipodi:nodetypes="cssccc"
           inkscape:connector-curvature="0" />
        <path
           style="display:inline;fill:url(#linearGradient5972);fill-opacity:1;fill-rule:evenodd;stroke:#c4a000;stroke-width:0.90669703;stroke-linecap:butt;stroke-linejoin:round;stroke-miterlimit:2.20000005;stroke-dasharray:none;stroke-opacity:1"
           d="m 36.832642,294.93546 c -1.160551,-0.39973 0.708607,1.21816 0.882091,2.1382 0.141865,0.75226 2.095904,2.91919 2.706961,3.7458 0.824807,1.11578 0.554016,-1.22138 1.109554,-1.6394 3.423002,-2.80235 1.145479,-3.86087 -0.809253,-3.61409 -0.868026,-0.0539 -2.957733,-0.36914 -3.889353,-0.63051 z"
           id="path4803"
           sodipodi:nodetypes="cssccc"
           inkscape:connector-curvature="0" />
        <path
           style="display:inline;fill:url(#radialGradient5946);fill-opacity:1;fill-rule:evenodd;stroke:none;stroke-width:1.06057262;stroke-linecap:butt;stroke-linejoin:round;stroke-miterlimit:4;stroke-dasharray:none;stroke-opacity:1"
           d="m 9.2475532,298.09723 c 2.0308098,-1.66728 3.0513658,-2.56327 5.2523378,-3.70617 1.121995,-0.7475 3.5862,-1.4103 4.73061,-1.77107 1.196713,-0.31638 3.120911,-0.77475 4.259516,-0.92991 2.964084,-0.3864 6.005319,0.0283 8.941603,0.76304 1.856907,0.29974 3.515941,1.39937 4.933978,2.65443 1.769929,1.85762 2.530941,2.79914 3.590753,4.45234 0.929321,2.21456 1.747655,3.51679 1.833093,5.99307 0.01275,2.35169 -0.464079,4.63429 -1.291298,6.29681 -0.920144,2.49583 -2.993723,5.23765 -5.299755,7.07089 -1.343553,1.51046 -2.345871,1.98726 -3.48058,2.70772 -2.201931,1.39118 -4.674644,2.13909 -7.209648,2.67812 -2.461579,0.49127 -5.148163,0.58663 -7.673942,0.19717 -2.993149,-0.37761 -5.931496,-1.42794 -8.3666755,-3.32334 -2.780979,-2.08927 -3.8924143,-5.20609 -4.7135425,-8.47198 -0.2656746,-1.56363 -0.2608451,-2.58298 -0.3330636,-3.91259 0.016515,-1.93506 0.3655324,-3.83527 1.0730787,-5.60564 0.9812025,-1.90404 2.0913772,-3.51796 3.7535351,-5.09289 z"
           id="path2495"
           sodipodi:nodetypes="cccccccccccccccccc"
           inkscape:connector-curvature="0" />
        <g
           style="display:inline"
           transform="matrix(1.8073049,-1.1972118,0.69888957,0.80199563,-6.0898716,298.56308)"
           id="g2901">
          <rect
             style="fill:none;fill-opacity:1;stroke:none;stroke-width:1.55158257;stroke-linecap:round;stroke-linejoin:round;stroke-miterlimit:4;stroke-dasharray:none;stroke-opacity:1"
             id="rect2942"
             width="4.1142945"
             height="2.5485651"
             x="1.693229"
             y="11.86683"
             transform="rotate(-15.633618)" />
          <g
             inkscape:label="Layer 1"
             id="g6279"
             transform="matrix(0.7563557,0.03944257,-0.00949747,0.7614408,2.0785103,5.5893626)">
            <path
               sodipodi:nodetypes="cccc"
               id="path2394"
               d="M 8.4244562,2.6665346 C 4.1643667,3.4435005 3.2712731,3.145242 0.48637033,9.1163636 5.9054295,8.4367572 11.389404,7.083089 16.243619,11.39461 16.383302,9.1073444 13.481524,4.7641227 8.4244562,2.6665346 Z"
               style="fill:url(#linearGradient6313);fill-opacity:1;fill-rule:evenodd;stroke:none;stroke-width:1px;stroke-linecap:butt;stroke-linejoin:miter;stroke-opacity:1"
               inkscape:connector-curvature="0" />
          </g>
        </g>
        <path
           style="display:inline;fill:none;fill-opacity:1;fill-rule:evenodd;stroke:#c4a000;stroke-width:0.83200002;stroke-linecap:round;stroke-linejoin:round;stroke-miterlimit:4;stroke-dasharray:none;stroke-opacity:1"
           d="m 41.156907,299.55802 c 0.929322,2.21456 1.747657,3.5168 1.833094,5.99307 0.01275,2.3517 -0.464078,4.63429 -1.291297,6.29681 -0.920144,2.49583 -2.993725,5.23765 -5.299755,7.07089 -1.343555,1.51047 -2.345871,1.98726 -3.480581,2.70772 -2.201932,1.39118 -4.674644,2.13909 -7.209647,2.67812 -2.461581,0.49127 -5.148163,0.58663 -7.673944,0.19717 -2.99315,-0.37761 -5.931494,-1.42794 -8.366675,-3.32334 -2.780979,-2.08927 -3.8924143,-5.20609 -4.7135414,-8.47198 -0.2656757,-1.56363 -0.2608462,-2.58298 -0.3330636,-3.91259 0.016515,-1.93506 0.3655324,-3.83527 1.0730776,-5.60564 0.9812025,-1.90404 2.0913772,-3.51796 3.7535351,-5.09289 2.0308093,-1.66728 3.0513673,-2.56327 5.2523383,-3.70617 1.121996,-0.7475 3.5862,-1.4103 4.730611,-1.77107 1.196711,-0.31638 3.120911,-0.77475 4.259515,-0.92991 2.964083,-0.3864 6.005318,0.0283 8.941603,0.76304 1.856908,0.29974 3.515941,1.39937 4.933979,2.65443"
           id="path5968"
           sodipodi:nodetypes="ccccccccccccccccc"
           inkscape:connector-curvature="0" />
        <g
           style="display:inline"
           id="g3423"
           transform="matrix(0.09459679,0.0246869,-0.02318861,0.10070896,7.0888767,278.06235)">
          <ellipse
             transform="translate(-34.648232,-4.2426406)"
             id="path2647"
             style="opacity:0.98999999;fill:#000000;fill-opacity:1;fill-rule:nonzero;stroke:none;stroke-width:10;stroke-linecap:round;stroke-linejoin:round;stroke-miterlimit:2.20000005;stroke-dasharray:none;stroke-opacity:0.54314719"
             cx="199.40411"
             cy="327.1124"
             rx="38.890873"
             ry="31.466251" />
          <ellipse
             transform="translate(89.802557,-48.436817)"
             id="path2649"
             style="display:inline;opacity:0.98999999;fill:#000000;fill-opacity:1;fill-rule:nonzero;stroke:none;stroke-width:10;stroke-linecap:round;stroke-linejoin:round;stroke-miterlimit:2.20000005;stroke-dasharray:none;stroke-opacity:0.54314719"
             cx="199.40411"
             cy="327.1124"
             rx="38.890873"
             ry="31.466251" />
          <path
             sodipodi:nodetypes="cccccccccccc"
             id="path2651"
             d="m 174.65538,321.10199 c -3.43363,1.71682 27.15271,11.5044 28.5505,7.70374 6.27905,-36.54982 -1.86936,-83.37146 -8.75152,-120.13373 -1.29017,-5.16068 -0.52211,-4.11211 2.82843,-4.94974 39.93084,-17.66471 28.57376,-6.62434 95.76573,-47.3418 5.2712,-3.9534 4.33221,-2.47957 3.53554,0.70711 8.49721,44.46875 10.71491,69.62715 8.7372,125.63884 10.89362,-3.7624 13.53243,7.35291 22.78488,-1.55449 5.55443,-49.6612 -12.88209,-159.98425 -13.66119,-161.06289 -54.52624,32.37398 -95.25417,54.15932 -146.5028,66.47663 -0.44108,-2.01667 18.03018,80.47599 12.37009,121.7884 -1.60882,6.43526 -2.22323,11.01111 -5.65686,12.72793 z"
             style="fill:#000000;fill-opacity:1;fill-rule:evenodd;stroke:none;stroke-width:1px;stroke-linecap:butt;stroke-linejoin:miter;stroke-opacity:1"
             inkscape:connector-curvature="0" />
        </g>
        <g
           style="display:inline;opacity:0.43049328"
           id="g3428"
           transform="matrix(0.09907472,0.02656117,-0.0240197,0.10715157,6.2730602,276.03671)">
          <ellipse
             transform="translate(-34.648232,-4.2426406)"
             id="path3430"
             style="opacity:0.98999999;fill:#000000;fill-opacity:1;fill-rule:nonzero;stroke:none;stroke-width:10;stroke-linecap:round;stroke-linejoin:round;stroke-miterlimit:2.20000005;stroke-dasharray:none;stroke-opacity:0.54314719"
             cx="199.40411"
             cy="327.1124"
             rx="38.890873"
             ry="31.466251" />
          <ellipse
             transform="translate(89.802557,-48.436817)"
             id="path3432"
             style="display:inline;opacity:0.98999999;fill:#000000;fill-opacity:1;fill-rule:nonzero;stroke:none;stroke-width:10;stroke-linecap:round;stroke-linejoin:round;stroke-miterlimit:2.20000005;stroke-dasharray:none;stroke-opacity:0.54314719"
             cx="199.40411"
             cy="327.1124"
             rx="38.890873"
             ry="31.466251" />
          <path
             sodipodi:nodetypes="cccccccccccc"
             id="path3434"
             d="m 174.65538,321.10199 c -3.43363,1.71682 27.15271,11.5044 28.5505,7.70374 6.27905,-36.54982 -1.86936,-83.37146 -8.75152,-120.13373 -1.29017,-5.16068 -0.52211,-4.11211 2.82843,-4.94974 39.93084,-17.66471 28.57376,-6.62434 95.76573,-47.3418 5.2712,-3.9534 4.33221,-2.47957 3.53554,0.70711 8.49721,44.46875 10.71491,69.62715 8.7372,125.63884 10.89362,-3.7624 13.53243,7.35291 22.78488,-1.55449 5.55443,-49.6612 -12.88209,-159.98425 -13.66119,-161.06289 -54.52624,32.37398 -95.25417,54.15932 -146.5028,66.47663 -0.44108,-2.01667 18.03018,80.47599 12.37009,121.7884 -1.60882,6.43526 -2.22323,11.01111 -5.65686,12.72793 z"
             style="fill:#000000;fill-opacity:1;fill-rule:evenodd;stroke:none;stroke-width:1px;stroke-linecap:butt;stroke-linejoin:miter;stroke-opacity:1"
             inkscape:connector-curvature="0" />
        </g>
      </g>
      <circle
         r="6.5"
         cy="310.29999"
         cx="16.5"
         id="path7659"
         style="opacity:1;fill:#000000;fill-opacity:0.34545492;stroke:none;stroke-width:1.77272725;stroke-linecap:square;stroke-linejoin:round;stroke-miterlimit:4;stroke-dasharray:none;stroke-opacity:1" />
      <circle
         r="6"
         cy="308.29999"
         cx="15"
         id="path7584"
         style="opacity:1;fill:url(#radialGradient7592);fill-opacity:1;stroke:#2e3436;stroke-width:1.5;stroke-linecap:square;stroke-linejoin:round;stroke-miterlimit:4;stroke-dasharray:none;stroke-opacity:1" />
      <rect
         transform="rotate(37.757426)"
         ry="0.99999201"
         y="229.01515"
         x="200.39752"
         height="3.0000021"
         width="1"
         id="rect7594"
         style="opacity:1;fill:#2e3436;fill-opacity:1;stroke:#fcaf3e;stroke-width:1.5;stroke-linecap:square;stroke-linejoin:round;stroke-miterlimit:4;stroke-dasharray:none;stroke-opacity:1" />
    </g>
  </g>
</svg>
