<?xml version="1.0" encoding="UTF-8" standalone="no"?>
<!-- Created with Inkscape (http://www.inkscape.org/) -->

<svg
   xmlns:dc="http://purl.org/dc/elements/1.1/"
   xmlns:cc="http://creativecommons.org/ns#"
   xmlns:rdf="http://www.w3.org/1999/02/22-rdf-syntax-ns#"
   xmlns:svg="http://www.w3.org/2000/svg"
   xmlns="http://www.w3.org/2000/svg"
   xmlns:xlink="http://www.w3.org/1999/xlink"
   xmlns:sodipodi="http://sodipodi.sourceforge.net/DTD/sodipodi-0.dtd"
   xmlns:inkscape="http://www.inkscape.org/namespaces/inkscape"
   width="48"
   height="48"
   id="svg2"
   version="1.1"
   inkscape:version="0.48.4 r9939"
   sodipodi:docname="replace.svg"
   inkscape:export-xdpi="45"
   inkscape:export-ydpi="45">
  <defs
     id="defs4">
    <linearGradient
       id="linearGradient3986"
       inkscape:collect="always">
      <stop
         id="stop3988"
         offset="0"
         style="stop-color:#f35959;stop-opacity:1" />
      <stop
         id="stop3990"
         offset="1"
         style="stop-color:#cc0000;stop-opacity:1" />
    </linearGradient>
    <linearGradient
       inkscape:collect="always"
       id="linearGradient4330">
      <stop
         style="stop-color:#d2e1f0;stop-opacity:1"
         offset="0"
         id="stop4332" />
      <stop
         style="stop-color:#5d91c8;stop-opacity:1"
         offset="1"
         id="stop4334" />
    </linearGradient>
    <linearGradient
       id="linearGradient4324">
      <stop
         id="stop4326"
         offset="0"
         style="stop-color:#babdb6;stop-opacity:1" />
      <stop
         id="stop4328"
         offset="1"
         style="stop-color:#555753;stop-opacity:1" />
    </linearGradient>
    <linearGradient
       id="linearGradient4312">
      <stop
         style="stop-color:#000000;stop-opacity:1"
         offset="0"
         id="stop4314" />
      <stop
         style="stop-color:#555753;stop-opacity:1"
         offset="1"
         id="stop4316" />
    </linearGradient>
    <linearGradient
       id="linearGradient4304">
      <stop
         id="stop4306"
         offset="0"
         style="stop-color:#555753;stop-opacity:1" />
      <stop
         id="stop4308"
         offset="1"
         style="stop-color:#555753;stop-opacity:1" />
    </linearGradient>
    <linearGradient
       inkscape:collect="always"
       id="linearGradient4284">
      <stop
         style="stop-color:#cc0000;stop-opacity:1;"
         offset="0"
         id="stop4286" />
      <stop
         style="stop-color:#a40000;stop-opacity:1"
         offset="1"
         id="stop4288" />
    </linearGradient>
    <linearGradient
       id="linearGradient4260">
      <stop
         style="stop-color:#d3d7cf;stop-opacity:1"
         offset="0"
         id="stop4262" />
      <stop
         style="stop-color:#888a85;stop-opacity:1"
         offset="1"
         id="stop4264" />
    </linearGradient>
    <linearGradient
       id="linearGradient3903">
      <stop
         style="stop-color:#2e3436;stop-opacity:1"
         offset="0"
         id="stop3905" />
      <stop
         id="stop3913"
         offset="0.44750932"
         style="stop-color:#2e3436;stop-opacity:1" />
      <stop
         id="stop3911"
         offset="0.63220835"
         style="stop-color:#8f5902;stop-opacity:1" />
      <stop
         style="stop-color:#8f5902;stop-opacity:1"
         offset="1"
         id="stop3907" />
    </linearGradient>
    <linearGradient
       id="linearGradient3871">
      <stop
         style="stop-color:#2e3436;stop-opacity:1"
         offset="0"
         id="stop3873" />
      <stop
         style="stop-color:#888a85;stop-opacity:1"
         offset="1"
         id="stop3875" />
    </linearGradient>
    <linearGradient
       id="linearGradient3895">
      <stop
         id="stop3897"
         offset="0"
         style="stop-color:#73d216;stop-opacity:0" />
      <stop
         style="stop-color:#def7c6;stop-opacity:1"
         offset="0.80000001"
         id="stop3903" />
      <stop
         id="stop3901"
         offset="1"
         style="stop-color:#eefbe1;stop-opacity:1" />
    </linearGradient>
    <linearGradient
       id="linearGradient3769">
      <stop
         style="stop-color:#4e9a06;stop-opacity:1"
         offset="0"
         id="stop3781" />
      <stop
         style="stop-color:#73d216;stop-opacity:1"
         offset="0.34999999"
         id="stop3779" />
      <stop
         style="stop-color:#c6f19c;stop-opacity:1"
         offset="1"
         id="stop3773" />
    </linearGradient>
    <linearGradient
       inkscape:collect="always"
       xlink:href="#linearGradient3769"
       id="linearGradient3775"
       x1="26.242641"
       y1="36"
       x2="23.242641"
       y2="14"
       gradientUnits="userSpaceOnUse" />
    <linearGradient
       inkscape:collect="always"
       xlink:href="#linearGradient3769-1"
       id="linearGradient3775-6"
       x1="26.242641"
       y1="36"
       x2="23.242641"
       y2="14"
       gradientUnits="userSpaceOnUse" />
    <linearGradient
       id="linearGradient3769-1">
      <stop
         style="stop-color:#4e9a06;stop-opacity:1"
         offset="0"
         id="stop3781-1" />
      <stop
         style="stop-color:#73d216;stop-opacity:1"
         offset="0.34999999"
         id="stop3779-2" />
      <stop
         style="stop-color:#c6f19c;stop-opacity:1"
         offset="1"
         id="stop3773-5" />
    </linearGradient>
    <linearGradient
       y2="14"
       x2="23.242641"
       y1="36"
       x1="26.242641"
       gradientUnits="userSpaceOnUse"
       id="linearGradient3801-5"
       xlink:href="#linearGradient3769-1-6"
       inkscape:collect="always" />
    <linearGradient
       id="linearGradient3769-1-6">
      <stop
         style="stop-color:#4e9a06;stop-opacity:1"
         offset="0"
         id="stop3781-1-4" />
      <stop
         style="stop-color:#73d216;stop-opacity:1"
         offset="0.34999999"
         id="stop3779-2-2" />
      <stop
         style="stop-color:#c6f19c;stop-opacity:1"
         offset="1"
         id="stop3773-5-4" />
    </linearGradient>
    <linearGradient
       inkscape:collect="always"
       xlink:href="#linearGradient3895"
       id="linearGradient3893"
       gradientUnits="userSpaceOnUse"
       gradientTransform="matrix(1.0979773,0,0,1.1210206,-5.9224764,1003.3777)"
       x1="25.261671"
       y1="25.287701"
       x2="20.261671"
       y2="8.2876997" />
    <linearGradient
       id="linearGradient3871-1">
      <stop
         style="stop-color:#2e3436;stop-opacity:1"
         offset="0"
         id="stop3873-2" />
      <stop
         style="stop-color:#888a85;stop-opacity:1"
         offset="1"
         id="stop3875-8" />
    </linearGradient>
    <linearGradient
       id="linearGradient3903-0">
      <stop
         style="stop-color:#2e3436;stop-opacity:1"
         offset="0"
         id="stop3905-0" />
      <stop
         id="stop3913-6"
         offset="0.44750932"
         style="stop-color:#2e3436;stop-opacity:1" />
      <stop
         id="stop3911-1"
         offset="0.63220835"
         style="stop-color:#8f5902;stop-opacity:1" />
      <stop
         style="stop-color:#8f5902;stop-opacity:1"
         offset="1"
         id="stop3907-0" />
    </linearGradient>
    <radialGradient
       inkscape:collect="always"
       xlink:href="#linearGradient4260"
       id="radialGradient4266"
       cx="10.90571"
       cy="1026.2727"
       fx="10.90571"
       fy="1026.2727"
       r="8.3144533"
       gradientTransform="matrix(-1.5801432,0.42339631,-0.45117578,-1.6838185,492.59993,2750.3061)"
       gradientUnits="userSpaceOnUse" />
    <filter
       id="filter4292"
       inkscape:label="filter1">
      <feColorMatrix
         id="feColorMatrix4294"
         values="1 0 0 0 0 0 1 0 0 0 0 0 1 0 0 0 0 0 0.7 0 "
         in="SourceGraphic" />
    </filter>
    <radialGradient
       inkscape:collect="always"
       xlink:href="#linearGradient4284"
       id="radialGradient4296"
       gradientUnits="userSpaceOnUse"
       gradientTransform="matrix(0.28658684,1.8666756,-1.4003856,0.36486244,1416.2363,663.5989)"
       cx="-1.7333868"
       cy="1001.9971"
       fx="-1.7333868"
       fy="1001.9971"
       r="10.640625" />
    <radialGradient
       inkscape:collect="always"
       xlink:href="#linearGradient4304"
       id="radialGradient4298"
       gradientUnits="userSpaceOnUse"
       gradientTransform="matrix(-1.5801432,0.42339631,-0.45117578,-1.6838185,492.59993,2750.3061)"
       cx="10.90571"
       cy="1026.2727"
       fx="10.90571"
       fy="1026.2727"
       r="8.3144533" />
    <radialGradient
       inkscape:collect="always"
       xlink:href="#linearGradient4312"
       id="radialGradient4310"
       gradientUnits="userSpaceOnUse"
       gradientTransform="matrix(-1.5801432,0.42339631,-0.45117578,-1.6838185,492.59993,2750.3061)"
       cx="11.039519"
       cy="1024.1985"
       fx="11.039519"
       fy="1024.1985"
       r="8.3144533" />
    <radialGradient
       inkscape:collect="always"
       xlink:href="#linearGradient4324"
       id="radialGradient4322"
       gradientUnits="userSpaceOnUse"
       gradientTransform="matrix(-1.5801432,0.42339631,-0.45117578,-1.6838185,492.62595,2750.2524)"
       cx="10.90571"
       cy="1026.2727"
       fx="10.90571"
       fy="1026.2727"
       r="8.3144533" />
    <radialGradient
       inkscape:collect="always"
       xlink:href="#linearGradient4330"
       id="radialGradient4336"
       cx="30.635046"
       cy="1025.9181"
       fx="30.635046"
       fy="1025.9181"
       r="9.3066405"
       gradientTransform="matrix(-1.2894001,0.32235692,-0.50601264,-2.0240074,589.62838,3087.9527)"
       gradientUnits="userSpaceOnUse" />
    <radialGradient
       inkscape:collect="always"
       xlink:href="#linearGradient4330"
       id="radialGradient3975"
       gradientUnits="userSpaceOnUse"
       gradientTransform="matrix(-1.2894001,0.32235692,-0.50601264,-2.0240074,589.62838,3087.9527)"
       cx="30.635046"
       cy="1025.9181"
       fx="30.635046"
       fy="1025.9181"
       r="9.3066405" />
    <radialGradient
       inkscape:collect="always"
       xlink:href="#linearGradient3986"
       id="radialGradient3978"
       gradientUnits="userSpaceOnUse"
       gradientTransform="matrix(0.28658684,1.8666756,-1.4003856,0.36486244,1416.2363,663.5989)"
       cx="-1.7333868"
       cy="1001.9971"
       fx="-1.7333868"
       fy="1001.9971"
       r="10.640625" />
    <radialGradient
       inkscape:collect="always"
       xlink:href="#linearGradient4324"
       id="radialGradient3984"
       gradientUnits="userSpaceOnUse"
       gradientTransform="matrix(-1.5801432,0.42339631,-0.45117578,-1.6838185,492.62595,2750.2524)"
       cx="10.90571"
       cy="1026.2727"
       fx="10.90571"
       fy="1026.2727"
       r="8.3144533" />
    <filter
       inkscape:collect="always"
       id="filter4011"
       x="-0.12376578"
       width="1.2475316"
       y="-0.16257542"
       height="1.3251508">
      <feGaussianBlur
         inkscape:collect="always"
         stdDeviation="2.0378422"
         id="feGaussianBlur4013"
         in="SourceAlpha" />
      <feColorMatrix
         id="feColorMatrix4015"
         values="1 0 0 0 0 0 1 0 0 0 0 0 1 0 0 0 0 0 0.7 0 " />
      <feOffset
         dx="2"
         dy="2"
         id="feOffset4017"
         result="result1" />
      <feMerge
         id="feMerge4019">
        <feMergeNode
           inkscape:collect="always"
           id="feMergeNode4021"
           in="result1" />
        <feMergeNode
           inkscape:collect="always"
           id="feMergeNode4023"
           in="SourceGraphic" />
      </feMerge>
    </filter>
  </defs>
  <sodipodi:namedview
     id="base"
     pagecolor="#ffffff"
     bordercolor="#666666"
     borderopacity="1.0"
     inkscape:pageopacity="0.0"
     inkscape:pageshadow="2"
     inkscape:zoom="11.313708"
     inkscape:cx="13.33401"
     inkscape:cy="27.00844"
     inkscape:document-units="px"
     inkscape:current-layer="layer1"
     showgrid="true"
     inkscape:window-width="1916"
     inkscape:window-height="1033"
     inkscape:window-x="0"
     inkscape:window-y="22"
     inkscape:window-maximized="0">
    <inkscape:grid
       type="xygrid"
       id="grid2989"
       empspacing="5"
       visible="true"
       enabled="true"
       snapvisiblegridlinesonly="true" />
  </sodipodi:namedview>
  <metadata
     id="metadata7">
    <rdf:RDF>
      <cc:Work
         rdf:about="">
        <dc:format>image/svg+xml</dc:format>
        <dc:type
           rdf:resource="http://purl.org/dc/dcmitype/StillImage" />
        <dc:title />
      </cc:Work>
    </rdf:RDF>
  </metadata>
  <g
     inkscape:label="Layer 1"
     inkscape:groupmode="layer"
     id="layer1"
     transform="translate(0,-1004.3622)">
    <text
       xml:space="preserve"
       style="font-size:40px;font-style:normal;font-weight:normal;line-height:125%;letter-spacing:0px;word-spacing:0px;fill:#000000;fill-opacity:1;stroke:none;font-family:Sans"
       x="14.937631"
       y="26.256466"
       id="text4196"
       sodipodi:linespacing="125%"
       transform="translate(0,1004.3622)"><tspan
         sodipodi:role="line"
         id="tspan4198"
         x="14.937631"
         y="26.256466" /></text>
    <g
       id="g3992"
       style="filter:url(#filter4011)">
      <path
         inkscape:connector-curvature="0"
         d="m 15.365864,1031.412 c -2.613291,0 -4.423836,0.2988 -5.4316406,0.8965 -1.007819,0.5976 -1.511724,1.6172 -1.511719,3.0586 -5e-6,1.1484 0.374994,2.0625 1.125,2.7422 0.7617116,0.6679 1.7929606,1.0019 3.0937496,1.0019 1.792958,0 3.228503,-0.6328 4.306641,-1.8984 1.089829,-1.2774 1.63475,-2.9707 1.634766,-5.0801 l 0,-0.7207 -3.216797,0 m 6.451172,-1.3359 0,11.2324 -3.234375,0 0,-2.9883 c -0.738296,1.1953 -1.658217,2.0801 -2.759766,2.6543 -1.101574,0.5625 -2.449229,0.8437 -4.042969,0.8437 -2.0156316,0 -3.6210986,-0.5625 -4.8164056,-1.6875 -1.183597,-1.1367 -1.7753931,-2.6542 -1.7753909,-4.5527 -2.2e-6,-2.2148 0.7382779,-3.8847 2.2148439,-5.0098 1.488275,-1.1249 3.7031166,-1.6874 6.6445306,-1.6875 l 4.535157,0 0,-0.3164 c -1.6e-5,-1.4882 -0.492203,-2.6367 -1.476563,-3.4453 -0.972669,-0.8203 -2.343762,-1.2304 -4.113281,-1.2304 -1.125009,0 -2.220711,0.1347 -3.2871096,0.4043 -1.066412,0.2695 -2.091801,0.6738 -3.076172,1.2128 l 0,-2.9882 c 1.183589,-0.457 2.332026,-0.7969 3.4453126,-1.0196 1.113273,-0.2343 2.197257,-0.3515 3.251953,-0.3515 2.847643,0 4.974594,0.7383 6.38086,2.2148 1.406232,1.4766 2.109356,3.7149 2.109375,6.7149"
         style="font-size:36px;font-style:normal;font-weight:normal;line-height:125%;letter-spacing:0px;word-spacing:0px;fill:url(#radialGradient3984);fill-opacity:1;stroke:none;font-family:Sans"
         id="path4258" />
      <path
         style="font-size:medium;font-style:normal;font-variant:normal;font-weight:normal;font-stretch:normal;text-indent:0;text-align:start;text-decoration:none;line-height:125%;letter-spacing:0;word-spacing:0;text-transform:none;direction:ltr;block-progression:tb;writing-mode:lr-tb;text-anchor:start;baseline-shift:baseline;color:#000000;fill:#000000;fill-opacity:1;fill-rule:nonzero;stroke:none;stroke-width:1;marker:none;visibility:visible;display:inline;overflow:visible;enable-background:accumulate;font-family:Sans;-inkscape-font-specification:Sans"
         d="m 13.3125,1020.6875 c -1.091737,0 -2.230602,0.1341 -3.375,0.375 -1.1443878,0.2289 -2.2927407,0.5651 -3.5,1.0313 l -0.34375,0.125 0,0.3437 0,3 0,0.8437 0.75,-0.4062 c 0.9484585,-0.5193 1.9436896,-0.8972 2.96875,-1.1562 1.025864,-0.2594 2.071152,-0.4063 3.15625,-0.4063 1.692266,0 2.922819,0.401 3.78125,1.125 0.822467,0.6756 1.238789,1.6099 1.28125,2.875 l -4,0 c -3.00515,10e-5 -5.3540753,0.5608 -6.96875,1.7813 -1.6023649,1.2209 -2.4062523,3.0803 -2.40625,5.4062 -2.3e-6,2.0024 0.6536106,3.6732 1.9375,4.9062 l 0,0.031 c 1.2974487,1.2211 3.0475955,1.8125 5.15625,1.8125 1.652553,0 3.092685,-0.2993 4.28125,-0.9062 0.77446,-0.4037 1.428997,-1.0059 2.03125,-1.6876 l 0,1.5938 0,0.5 0.5,0 3.21875,0 0.5,0 0,-0.5 0,-11.25 c -1.9e-5,-3.0781 -0.727146,-5.4634 -2.25,-7.0625 -1.522504,-1.5985 -3.784685,-2.375 -6.71875,-2.375 z m 0,1 c 2.761221,0 4.709972,0.708 6,2.0625 1.28961,1.3541 1.968731,3.4531 1.96875,6.375 l 0,10.75 -2.21875,0 0,-2.5 0,-1.75 -0.9375,1.5 c -0.698686,1.1312 -1.546466,1.9391 -2.5625,2.4688 -1.014583,0.518 -2.277573,0.7812 -3.8125,0.7812 -1.9226085,0 -3.3755839,-0.5336 -4.46875,-1.5625 -1.0833036,-1.0404 -1.6250021,-2.3929 -1.625,-4.1875 -2.1e-6,-2.1037 0.6804841,-3.5645 2.03125,-4.5938 1.3618761,-1.0293 3.466072,-1.5936 6.34375,-1.5937 l 4.53125,0 0.5,0 0,-0.5 0,-0.3125 c -1.7e-5,-1.5984 -0.555618,-2.9396 -1.65625,-3.8438 -1.086907,-0.9166 -2.590728,-1.3437 -4.4375,-1.3437 -1.16492,0 -2.299317,0.1577 -3.40625,0.4375 -0.858046,0.2168 -1.6627209,0.5844 -2.46875,0.9688 l 0,-1.9063 c 1.0458938,-0.3868 2.0806172,-0.7098 3.0625,-0.9063 1.082148,-0.2277 2.138595,-0.3437 3.15625,-0.3437 z m 2.03125,9.2813 c -2.651404,0 -4.516594,0.2743 -5.6875,0.9687 -1.1595364,0.6876 -1.7500058,1.9108 -1.75,3.4687 -5.9e-6,1.2573 0.4274094,2.3512 1.28125,3.125 0.867786,0.761 2.051122,1.125 3.4375,1.125 1.910603,0 3.520636,-0.6927 4.6875,-2.0624 1.178021,-1.3808 1.749983,-3.2108 1.75,-5.4063 l 0,-0.7187 0,-0.5 -0.5,0 -3.21875,0 z m 0,1 2.71875,0 0,0.2187 c -1.5e-5,2.0233 -0.529613,3.576 -1.53125,4.75 -0.989412,1.1614 -2.230937,1.7187 -3.90625,1.7187 -1.2152,0 -2.125613,-0.3001 -2.78125,-0.875 -0.646171,-0.5855 -0.9375049,-1.3354 -0.9375,-2.375 -5e-6,-1.3248 0.3938996,-2.1173 1.25,-2.625 0.844704,-0.5009 2.612322,-0.8125 5.1875,-0.8124 z"
         id="path4216"
         inkscape:connector-curvature="0" />
      <g
         id="text4208"
         style="font-size:36px;font-style:normal;font-weight:normal;line-height:125%;letter-spacing:0px;word-spacing:0px;fill:url(#radialGradient4336);fill-opacity:1;stroke:none;font-family:Sans">
        <path
           id="path4213"
           style="fill:url(#radialGradient3975);fill-opacity:1;stroke:#204a87;stroke-opacity:1"
           d="m 39.525391,1031.536 c -1.8e-5,-2.3789 -0.492205,-4.2422 -1.476563,-5.5898 -0.972671,-1.3594 -2.314467,-2.0391 -4.025391,-2.0391 -1.710947,0 -3.058602,0.6797 -4.042968,2.0391 -0.972664,1.3476 -1.458991,3.2109 -1.458985,5.5898 -6e-6,2.3789 0.486321,4.2481 1.458985,5.6074 0.984366,1.3477 2.332021,2.0215 4.042968,2.0215 1.710924,0 3.05272,-0.6738 4.025391,-2.0215 0.984358,-1.3593 1.476545,-3.2285 1.476563,-5.6074 m -11.003907,-6.873 c 0.679681,-1.1719 1.535149,-2.0391 2.566407,-2.6016 1.042958,-0.5742 2.285145,-0.8613 3.726562,-0.8613 2.39061,0 4.330061,0.9492 5.818359,2.8476 1.49998,1.8985 2.24998,4.3946 2.25,7.4883 -2e-5,3.0938 -0.75002,5.5899 -2.25,7.4883 -1.488298,1.8984 -3.427749,2.8476 -5.818359,2.8476 -1.441417,0 -2.683604,-0.2812 -3.726562,-0.8437 -1.031258,-0.5742 -1.886726,-1.4473 -2.566407,-2.6191 l 0,2.9531 -3.251953,0 0,-27.3516 3.251953,0 0,10.6524"
           inkscape:connector-curvature="0" />
      </g>
      <path
         inkscape:connector-curvature="0"
         id="rect4276"
         d="m 5.8495672,1017.8478 -2.483504,3.2352 7.6057288,9.9081 -7.6057288,9.9081 2.483504,3.1948 7.6057288,-9.908 7.605727,9.908 2.452458,-3.1948 -7.605726,-9.9081 7.605726,-9.9081 -2.452458,-3.2352 -7.605727,9.908 -7.6057288,-9.908 z"
         style="fill:url(#radialGradient3978);fill-opacity:1;stroke:#a40000;stroke-width:1.13383078999999998;stroke-opacity:1;filter:url(#filter4292)" />
    </g>
  </g>
</svg>
